# xmcd
#
# Track frame offsets:
#	150
#	19709
#	38834
#	60134
#	79716
#	91345
#	108857
#	129571
#	142170
#	153457
#	173495
#
# Disc length: 2457 seconds
#
# Revision: 1
# Processed by: cddbd v1.5.2PL0 Copyright (c) Steve Scherf et al.
# Submitted via: audiograbber 1.83.01
#
DISCID=7e09970b
DTITLE=Jo' Buddy and Down Home King III - Whole Lotta Things To Do
DYEAR=2008
DGENRE=Roots
TTITLE0=Howlin' These Blues
TTITLE1=Everybody's Got The Right
TTITLE2=Whole Lotta Things To Do
TTITLE3=Have Yourself A Ball
TTITLE4=(Electric) Ragtime Man
TTITLE5=Speedin' Up Mama
TTITLE6=They Don't Know What I Do
TTITLE7=Thank You Mr. Lockwood Jr.
TTITLE8=Do My Number
TTITLE9=She Moved Away - I'm Going Home
TTITLE10=Way Back Rag
EXTD=
EXTT0=
EXTT1=
EXTT2=
EXTT3=
EXTT4=
EXTT5=
EXTT6=
EXTT7=
EXTT8=
EXTT9=
EXTT10=
PLAYORDER=
